<mxfile host="app.diagrams.net" agent="Mozilla/5.0 (Windows NT 10.0; Win64; x64) AppleWebKit/537.36 (KHTML, like Gecko) Chrome/141.0.0.0 Safari/537.36 Edg/141.0.0.0" version="28.2.5">
  <diagram name="Diagrama de Casos de Uso - FlorESer" id="0">
    <mxGraphModel dx="1103" dy="452" grid="1" gridSize="10" guides="1" tooltips="1" connect="1" arrows="1" fold="1" page="1" pageScale="1" pageWidth="1100" pageHeight="850" math="0" shadow="0">
      <root>
        <mxCell id="0" />
        <mxCell id="1" parent="0" />
        <mxCell id="2" value="" style="rounded=1;whiteSpace=wrap;html=1;fillColor=#e8f5e9;strokeColor=#4caf50;" parent="1" vertex="1">
          <mxGeometry x="300" width="700" height="850" as="geometry" />
        </mxCell>
        <mxCell id="10" value="Registrar Plantio" style="ellipse;whiteSpace=wrap;html=1;fillColor=#ffffff;strokeColor=#2e7d32;" parent="2" vertex="1">
          <mxGeometry x="60" y="26.2" width="130" height="63.8" as="geometry" />
        </mxCell>
        <mxCell id="11" value="Selecionar Espécie" style="ellipse;whiteSpace=wrap;html=1;fillColor=#ffffff;strokeColor=#2e7d32;" parent="2" vertex="1">
          <mxGeometry x="281" y="26.2" width="130" height="63.8" as="geometry" />
        </mxCell>
        <mxCell id="12" value="Consultar Catálogo" style="ellipse;whiteSpace=wrap;html=1;fillColor=#ffffff;strokeColor=#2e7d32;" parent="2" vertex="1">
          <mxGeometry x="60" y="100" width="130" height="66.23" as="geometry" />
        </mxCell>
        <mxCell id="13" value="Visualizar Mapa" style="ellipse;whiteSpace=wrap;html=1;fillColor=#ffffff;strokeColor=#2e7d32;" parent="2" vertex="1">
          <mxGeometry x="60" y="179.5" width="130" height="63.95" as="geometry" />
        </mxCell>
        <mxCell id="14" value="Histórico de Plantios" style="ellipse;whiteSpace=wrap;html=1;fillColor=#ffffff;strokeColor=#2e7d32;" parent="2" vertex="1">
          <mxGeometry x="60" y="253.73999999999998" width="140" height="61.66" as="geometry" />
        </mxCell>
        <mxCell id="15" value="Cadastrar Ponto de Retirada" style="ellipse;whiteSpace=wrap;html=1;fillColor=#ffffff;strokeColor=#512da8;" parent="2" vertex="1">
          <mxGeometry x="455" y="224.72" width="170" height="66.55" as="geometry" />
        </mxCell>
        <mxCell id="17" value="Publicar Conteúdo" style="ellipse;whiteSpace=wrap;html=1;fillColor=#ffffff;strokeColor=#512da8;" parent="2" vertex="1">
          <mxGeometry x="455" y="310.00000000000006" width="170" height="54.27" as="geometry" />
        </mxCell>
        <mxCell id="SvDAr2LP0oa5Av3KDg7y-24" value="Atualizar Perfil" style="ellipse;whiteSpace=wrap;html=1;fillColor=#ffffff;strokeColor=#2e7d32;" parent="2" vertex="1">
          <mxGeometry x="60" y="325.7" width="140" height="64.49" as="geometry" />
        </mxCell>
        <mxCell id="SvDAr2LP0oa5Av3KDg7y-25" value="Receber Pontuação" style="ellipse;whiteSpace=wrap;html=1;fillColor=#ffffff;strokeColor=#2e7d32;" parent="2" vertex="1">
          <mxGeometry x="60" y="399.99999999999994" width="140" height="57.32" as="geometry" />
        </mxCell>
        <mxCell id="SvDAr2LP0oa5Av3KDg7y-35" value="" style="html=1;verticalAlign=bottom;labelBackgroundColor=none;endArrow=block;endFill=1;dashed=1;rounded=0;exitX=1;exitY=0.5;exitDx=0;exitDy=0;" parent="2" source="10" target="11" edge="1">
          <mxGeometry width="160" relative="1" as="geometry">
            <mxPoint x="350" y="314.10174294476144" as="sourcePoint" />
            <mxPoint x="510" y="314.10174294476144" as="targetPoint" />
          </mxGeometry>
        </mxCell>
        <mxCell id="SvDAr2LP0oa5Av3KDg7y-36" value="&amp;lt;&amp;lt;include&amp;gt;&amp;gt;" style="edgeLabel;html=1;align=center;verticalAlign=middle;resizable=0;points=[];" parent="SvDAr2LP0oa5Av3KDg7y-35" vertex="1" connectable="0">
          <mxGeometry x="-0.1884" y="-2" relative="1" as="geometry">
            <mxPoint as="offset" />
          </mxGeometry>
        </mxCell>
        <mxCell id="18" value="Editar/Excluir Conteúdo" style="ellipse;whiteSpace=wrap;html=1;fillColor=#ffffff;strokeColor=#512da8;" parent="2" vertex="1">
          <mxGeometry x="455" y="405.09" width="170" height="52.23" as="geometry" />
        </mxCell>
        <mxCell id="16" value="Gerenciar Estoque de Mudas" style="ellipse;whiteSpace=wrap;html=1;fillColor=#ffffff;strokeColor=#512da8;" parent="2" vertex="1">
          <mxGeometry x="450" y="115.83" width="180" height="64.17" as="geometry" />
        </mxCell>
        <mxCell id="SvDAr2LP0oa5Av3KDg7y-48" value="" style="html=1;verticalAlign=bottom;labelBackgroundColor=none;endArrow=block;endFill=1;dashed=1;rounded=0;exitX=0.5;exitY=1;exitDx=0;exitDy=0;entryX=0.5;entryY=0;entryDx=0;entryDy=0;" parent="2" source="16" target="15" edge="1">
          <mxGeometry width="160" relative="1" as="geometry">
            <mxPoint x="220" y="47.28271418035015" as="sourcePoint" />
            <mxPoint x="328" y="47.28271418035015" as="targetPoint" />
          </mxGeometry>
        </mxCell>
        <mxCell id="SvDAr2LP0oa5Av3KDg7y-49" value="&amp;lt;&amp;lt;include&amp;gt;&amp;gt;" style="edgeLabel;html=1;align=center;verticalAlign=middle;resizable=0;points=[];" parent="SvDAr2LP0oa5Av3KDg7y-48" vertex="1" connectable="0">
          <mxGeometry x="-0.1884" y="-2" relative="1" as="geometry">
            <mxPoint as="offset" />
          </mxGeometry>
        </mxCell>
        <mxCell id="SvDAr2LP0oa5Av3KDg7y-50" value="" style="html=1;verticalAlign=bottom;labelBackgroundColor=none;endArrow=block;endFill=1;dashed=1;rounded=0;" parent="2" source="17" target="18" edge="1">
          <mxGeometry width="160" relative="1" as="geometry">
            <mxPoint x="539.5" y="478.98742284849186" as="sourcePoint" />
            <mxPoint x="540" y="400" as="targetPoint" />
          </mxGeometry>
        </mxCell>
        <mxCell id="SvDAr2LP0oa5Av3KDg7y-51" value="&amp;lt;&amp;lt;extend&amp;gt;&amp;gt;" style="edgeLabel;html=1;align=center;verticalAlign=middle;resizable=0;points=[];" parent="SvDAr2LP0oa5Av3KDg7y-50" vertex="1" connectable="0">
          <mxGeometry x="-0.25" y="-1" relative="1" as="geometry">
            <mxPoint as="offset" />
          </mxGeometry>
        </mxCell>
        <mxCell id="SvDAr2LP0oa5Av3KDg7y-58" value="" style="html=1;verticalAlign=bottom;labelBackgroundColor=none;endArrow=block;endFill=1;dashed=1;rounded=0;exitX=1;exitY=0.5;exitDx=0;exitDy=0;entryX=0.5;entryY=0.5;entryDx=0;entryDy=0;entryPerimeter=0;" parent="2" source="13" target="SvDAr2LP0oa5Av3KDg7y-61" edge="1">
          <mxGeometry width="160" relative="1" as="geometry">
            <mxPoint x="220" y="81.03722681572921" as="sourcePoint" />
            <mxPoint x="338" y="300.3920655254066" as="targetPoint" />
          </mxGeometry>
        </mxCell>
        <mxCell id="SvDAr2LP0oa5Av3KDg7y-59" value="&amp;lt;&amp;lt;include&amp;gt;&amp;gt;" style="edgeLabel;html=1;align=center;verticalAlign=middle;resizable=0;points=[];" parent="SvDAr2LP0oa5Av3KDg7y-58" vertex="1" connectable="0">
          <mxGeometry x="-0.1884" y="-2" relative="1" as="geometry">
            <mxPoint as="offset" />
          </mxGeometry>
        </mxCell>
        <mxCell id="SvDAr2LP0oa5Av3KDg7y-61" value="Sistema de Geolocalização" style="shape=umlActor;verticalLabelPosition=bottom;verticalAlign=top;html=1;" parent="2" vertex="1">
          <mxGeometry x="326" y="164.90357713927762" width="40" height="93.15068493150685" as="geometry" />
        </mxCell>
        <mxCell id="5" value="Administrador" style="shape=umlActor;verticalLabelPosition=bottom;verticalAlign=top;html=1;" parent="2" vertex="1">
          <mxGeometry x="330" y="509.9985559566786" width="40" height="81.82912154031287" as="geometry" />
        </mxCell>
        <mxCell id="21" value="Validar Plantio" style="ellipse;whiteSpace=wrap;html=1;fillColor=#ffffff;strokeColor=#1565c0;" parent="2" vertex="1">
          <mxGeometry x="28" y="647" width="172" height="48" as="geometry" />
        </mxCell>
        <mxCell id="19" value="Gerenciar Espécies" style="ellipse;whiteSpace=wrap;html=1;fillColor=#ffffff;strokeColor=#1565c0;" parent="2" vertex="1">
          <mxGeometry x="28" y="547.23" width="172" height="47.77" as="geometry" />
        </mxCell>
        <mxCell id="SvDAr2LP0oa5Av3KDg7y-32" value="" style="html=1;verticalAlign=bottom;labelBackgroundColor=none;endArrow=block;endFill=1;dashed=1;rounded=0;exitX=0.5;exitY=1;exitDx=0;exitDy=0;" parent="2" source="19" target="21" edge="1">
          <mxGeometry width="160" relative="1" as="geometry">
            <mxPoint x="1078" y="593.1131167268351" as="sourcePoint" />
            <mxPoint x="1238" y="593.1131167268351" as="targetPoint" />
          </mxGeometry>
        </mxCell>
        <mxCell id="SvDAr2LP0oa5Av3KDg7y-33" value="&amp;lt;&amp;lt;extend&amp;gt;&amp;gt;" style="edgeLabel;html=1;align=center;verticalAlign=middle;resizable=0;points=[];" parent="SvDAr2LP0oa5Av3KDg7y-32" vertex="1" connectable="0">
          <mxGeometry x="-0.25" y="-1" relative="1" as="geometry">
            <mxPoint as="offset" />
          </mxGeometry>
        </mxCell>
        <mxCell id="22" value="Gerar Relatórios e Estatísticas" style="ellipse;whiteSpace=wrap;html=1;fillColor=#ffffff;strokeColor=#1565c0;" parent="2" vertex="1">
          <mxGeometry x="24" y="740" width="180" height="60" as="geometry" />
        </mxCell>
        <mxCell id="20" value="Gerenciar Usuários" style="ellipse;whiteSpace=wrap;html=1;fillColor=#ffffff;strokeColor=#1565c0;" parent="2" vertex="1">
          <mxGeometry x="510" y="625.63" width="170" height="57" as="geometry" />
        </mxCell>
        <mxCell id="23" value="Moderar Conteúdo" style="ellipse;whiteSpace=wrap;html=1;fillColor=#ffffff;strokeColor=#1565c0;" parent="2" vertex="1">
          <mxGeometry x="510" y="547.23" width="170" height="55.4" as="geometry" />
        </mxCell>
        <mxCell id="SvDAr2LP0oa5Av3KDg7y-63" value="" style="html=1;verticalAlign=bottom;labelBackgroundColor=none;endArrow=block;endFill=1;dashed=1;rounded=0;exitX=0.5;exitY=1;exitDx=0;exitDy=0;entryX=0.5;entryY=0;entryDx=0;entryDy=0;" parent="2" source="21" target="22" edge="1">
          <mxGeometry width="160" relative="1" as="geometry">
            <mxPoint x="218" y="788" as="sourcePoint" />
            <mxPoint x="318" y="789" as="targetPoint" />
          </mxGeometry>
        </mxCell>
        <mxCell id="SvDAr2LP0oa5Av3KDg7y-64" value="&amp;lt;&amp;lt;extend&amp;gt;&amp;gt;" style="edgeLabel;html=1;align=center;verticalAlign=middle;resizable=0;points=[];" parent="SvDAr2LP0oa5Av3KDg7y-63" vertex="1" connectable="0">
          <mxGeometry x="-0.25" y="-1" relative="1" as="geometry">
            <mxPoint as="offset" />
          </mxGeometry>
        </mxCell>
        <mxCell id="SvDAr2LP0oa5Av3KDg7y-65" value="" style="html=1;verticalAlign=bottom;labelBackgroundColor=none;endArrow=block;endFill=1;rounded=0;entryX=1;entryY=0.5;entryDx=0;entryDy=0;exitX=0;exitY=0.3333333333333333;exitDx=0;exitDy=0;exitPerimeter=0;" parent="2" source="5" target="19" edge="1">
          <mxGeometry width="160" relative="1" as="geometry">
            <mxPoint x="790" y="267" as="sourcePoint" />
            <mxPoint x="635" y="441" as="targetPoint" />
          </mxGeometry>
        </mxCell>
        <mxCell id="SvDAr2LP0oa5Av3KDg7y-66" value="" style="html=1;verticalAlign=bottom;labelBackgroundColor=none;endArrow=block;endFill=1;rounded=0;entryX=0.972;entryY=0.326;entryDx=0;entryDy=0;exitX=0;exitY=0.3333333333333333;exitDx=0;exitDy=0;exitPerimeter=0;entryPerimeter=0;" parent="2" source="5" target="21" edge="1">
          <mxGeometry width="160" relative="1" as="geometry">
            <mxPoint x="360" y="561" as="sourcePoint" />
            <mxPoint x="120" y="730" as="targetPoint" />
          </mxGeometry>
        </mxCell>
        <mxCell id="SvDAr2LP0oa5Av3KDg7y-67" value="" style="html=1;verticalAlign=bottom;labelBackgroundColor=none;endArrow=block;endFill=1;rounded=0;entryX=1;entryY=0;entryDx=0;entryDy=0;exitX=0;exitY=0.3333333333333333;exitDx=0;exitDy=0;exitPerimeter=0;" parent="2" source="5" target="22" edge="1">
          <mxGeometry width="160" relative="1" as="geometry">
            <mxPoint x="360" y="561" as="sourcePoint" />
            <mxPoint x="120" y="730" as="targetPoint" />
          </mxGeometry>
        </mxCell>
        <mxCell id="SvDAr2LP0oa5Av3KDg7y-68" value="" style="html=1;verticalAlign=bottom;labelBackgroundColor=none;endArrow=block;endFill=1;rounded=0;entryX=0;entryY=0.5;entryDx=0;entryDy=0;exitX=1;exitY=0.3333333333333333;exitDx=0;exitDy=0;exitPerimeter=0;" parent="2" source="5" target="20" edge="1">
          <mxGeometry width="160" relative="1" as="geometry">
            <mxPoint x="370" y="540" as="sourcePoint" />
            <mxPoint x="600" y="731" as="targetPoint" />
          </mxGeometry>
        </mxCell>
        <mxCell id="SvDAr2LP0oa5Av3KDg7y-69" value="" style="html=1;verticalAlign=bottom;labelBackgroundColor=none;endArrow=block;endFill=1;rounded=0;entryX=0;entryY=0.5;entryDx=0;entryDy=0;exitX=1;exitY=0.3333333333333333;exitDx=0;exitDy=0;exitPerimeter=0;" parent="2" source="5" target="23" edge="1">
          <mxGeometry width="160" relative="1" as="geometry">
            <mxPoint x="360" y="561" as="sourcePoint" />
            <mxPoint x="520" y="610" as="targetPoint" />
          </mxGeometry>
        </mxCell>
        <mxCell id="3" value="Cidadão Comum" style="shape=umlActor;verticalLabelPosition=bottom;verticalAlign=top;html=1;" parent="1" vertex="1">
          <mxGeometry x="183" y="261" width="40" height="80" as="geometry" />
        </mxCell>
        <mxCell id="4" value="Instituição / ONG" style="shape=umlActor;verticalLabelPosition=bottom;verticalAlign=top;html=1;" parent="1" vertex="1">
          <mxGeometry x="1079" y="230" width="40" height="80" as="geometry" />
        </mxCell>
        <mxCell id="SvDAr2LP0oa5Av3KDg7y-42" value="" style="html=1;verticalAlign=bottom;labelBackgroundColor=none;endArrow=block;endFill=1;rounded=0;entryX=0;entryY=0.5;entryDx=0;entryDy=0;exitX=1;exitY=0.3333333333333333;exitDx=0;exitDy=0;exitPerimeter=0;" parent="1" source="3" target="10" edge="1">
          <mxGeometry width="160" relative="1" as="geometry">
            <mxPoint x="480" y="221" as="sourcePoint" />
            <mxPoint x="640" y="221" as="targetPoint" />
          </mxGeometry>
        </mxCell>
        <mxCell id="SvDAr2LP0oa5Av3KDg7y-43" value="" style="html=1;verticalAlign=bottom;labelBackgroundColor=none;endArrow=block;endFill=1;rounded=0;entryX=0;entryY=0.5;entryDx=0;entryDy=0;exitX=1;exitY=0.3333333333333333;exitDx=0;exitDy=0;exitPerimeter=0;" parent="1" source="3" target="12" edge="1">
          <mxGeometry width="160" relative="1" as="geometry">
            <mxPoint x="230" y="281" as="sourcePoint" />
            <mxPoint x="380" y="61" as="targetPoint" />
          </mxGeometry>
        </mxCell>
        <mxCell id="SvDAr2LP0oa5Av3KDg7y-44" value="" style="html=1;verticalAlign=bottom;labelBackgroundColor=none;endArrow=block;endFill=1;rounded=0;entryX=0.007;entryY=0.617;entryDx=0;entryDy=0;entryPerimeter=0;exitX=1;exitY=0.3333333333333333;exitDx=0;exitDy=0;exitPerimeter=0;" parent="1" source="3" target="13" edge="1">
          <mxGeometry width="160" relative="1" as="geometry">
            <mxPoint x="230" y="291" as="sourcePoint" />
            <mxPoint x="380" y="151" as="targetPoint" />
          </mxGeometry>
        </mxCell>
        <mxCell id="SvDAr2LP0oa5Av3KDg7y-45" value="" style="html=1;verticalAlign=bottom;labelBackgroundColor=none;endArrow=block;endFill=1;rounded=0;entryX=0;entryY=0.5;entryDx=0;entryDy=0;exitX=1;exitY=0.3333333333333333;exitDx=0;exitDy=0;exitPerimeter=0;" parent="1" source="3" target="14" edge="1">
          <mxGeometry width="160" relative="1" as="geometry">
            <mxPoint x="220" y="281" as="sourcePoint" />
            <mxPoint x="381" y="238" as="targetPoint" />
          </mxGeometry>
        </mxCell>
        <mxCell id="SvDAr2LP0oa5Av3KDg7y-46" value="" style="html=1;verticalAlign=bottom;labelBackgroundColor=none;endArrow=block;endFill=1;rounded=0;entryX=0;entryY=0.5;entryDx=0;entryDy=0;exitX=1;exitY=0.3333333333333333;exitDx=0;exitDy=0;exitPerimeter=0;" parent="1" source="3" target="SvDAr2LP0oa5Av3KDg7y-24" edge="1">
          <mxGeometry width="160" relative="1" as="geometry">
            <mxPoint x="220" y="281" as="sourcePoint" />
            <mxPoint x="380" y="311" as="targetPoint" />
          </mxGeometry>
        </mxCell>
        <mxCell id="SvDAr2LP0oa5Av3KDg7y-47" value="" style="html=1;verticalAlign=bottom;labelBackgroundColor=none;endArrow=block;endFill=1;rounded=0;entryX=0;entryY=0.5;entryDx=0;entryDy=0;exitX=1;exitY=0.3333333333333333;exitDx=0;exitDy=0;exitPerimeter=0;" parent="1" source="3" target="SvDAr2LP0oa5Av3KDg7y-25" edge="1">
          <mxGeometry width="160" relative="1" as="geometry">
            <mxPoint x="220" y="291" as="sourcePoint" />
            <mxPoint x="380" y="391" as="targetPoint" />
          </mxGeometry>
        </mxCell>
        <mxCell id="SvDAr2LP0oa5Av3KDg7y-52" value="" style="html=1;verticalAlign=bottom;labelBackgroundColor=none;endArrow=block;endFill=1;rounded=0;entryX=1;entryY=0.5;entryDx=0;entryDy=0;exitX=0;exitY=0.3333333333333333;exitDx=0;exitDy=0;exitPerimeter=0;" parent="1" source="4" target="16" edge="1">
          <mxGeometry width="160" relative="1" as="geometry">
            <mxPoint x="220" y="265" as="sourcePoint" />
            <mxPoint x="380" y="358" as="targetPoint" />
          </mxGeometry>
        </mxCell>
        <mxCell id="SvDAr2LP0oa5Av3KDg7y-53" value="" style="html=1;verticalAlign=bottom;labelBackgroundColor=none;endArrow=block;endFill=1;rounded=0;entryX=1;entryY=0.5;entryDx=0;entryDy=0;exitX=0;exitY=0.3333333333333333;exitDx=0;exitDy=0;exitPerimeter=0;" parent="1" source="4" target="15" edge="1">
          <mxGeometry width="160" relative="1" as="geometry">
            <mxPoint x="1130" y="255" as="sourcePoint" />
            <mxPoint x="950" y="118" as="targetPoint" />
          </mxGeometry>
        </mxCell>
        <mxCell id="SvDAr2LP0oa5Av3KDg7y-54" value="" style="html=1;verticalAlign=bottom;labelBackgroundColor=none;endArrow=block;endFill=1;rounded=0;entryX=1;entryY=0.5;entryDx=0;entryDy=0;exitX=0;exitY=0.3333333333333333;exitDx=0;exitDy=0;exitPerimeter=0;" parent="1" source="4" target="17" edge="1">
          <mxGeometry width="160" relative="1" as="geometry">
            <mxPoint x="1130" y="255" as="sourcePoint" />
            <mxPoint x="950" y="218" as="targetPoint" />
          </mxGeometry>
        </mxCell>
        <mxCell id="SvDAr2LP0oa5Av3KDg7y-55" value="" style="html=1;verticalAlign=bottom;labelBackgroundColor=none;endArrow=block;endFill=1;rounded=0;entryX=1;entryY=0.5;entryDx=0;entryDy=0;exitX=0;exitY=0.3333333333333333;exitDx=0;exitDy=0;exitPerimeter=0;" parent="1" source="4" target="18" edge="1">
          <mxGeometry width="160" relative="1" as="geometry">
            <mxPoint x="1130" y="346" as="sourcePoint" />
            <mxPoint x="939.9999999999975" y="512.6322580645162" as="targetPoint" />
          </mxGeometry>
        </mxCell>
      </root>
    </mxGraphModel>
  </diagram>
</mxfile>
